<?xml version="1.0" encoding="UTF-8"?>
<svg width="32" height="32" viewBox="0 0 32 32" fill="none" xmlns="http://www.w3.org/2000/svg">
  <circle cx="16" cy="16" r="16" fill="#1abc9c"/>
  <path d="M22 12C22 14.2091 20.2091 16 18 16C15.7909 16 14 14.2091 14 12C14 9.79086 15.7909 8 18 8C20.2091 8 22 9.79086 22 12Z" fill="white"/>
  <path d="M25 22C25 23.6569 23.6569 25 22 25H14C12.3431 25 11 23.6569 11 22C11 19.2386 13.2386 17 16 17H20C22.7614 17 25 19.2386 25 22Z" fill="white"/>
  <circle cx="10" cy="14" r="3" fill="white"/>
  <path d="M7 19C7 17.3431 8.34315 16 10 16H11.2164C10.435 17.1652 10 18.5373 10 20C10 20.7013 10.1324 21.3744 10.3789 22H8C7.44772 22 7 21.5523 7 21V19Z" fill="white"/>
</svg>
